<svg width="161" height="24" viewBox="0 0 161 24" fill="none" xmlns="http://www.w3.org/2000/svg">
<path d="M9.04774 22.4125C9.0991 22.4268 9.15266 22.434 9.20653 22.434C9.30888 22.4337 9.40932 22.4095 9.49755 22.3636C9.61229 22.3037 9.69797 22.2084 9.73817 22.0962L13.0229 12.9046C13.454 12.9026 13.8667 12.7495 14.17 12.4789C14.4733 12.2083 14.6425 11.8424 14.6403 11.4617C14.638 11.081 14.4646 10.7167 14.1581 10.4489C13.8517 10.1811 13.4372 10.0317 13.0061 10.0337C12.7645 10.0346 12.5262 10.0836 12.3091 10.1772L7.96983 6.34555C7.86761 6.25839 7.73072 6.21016 7.58863 6.21125C7.44653 6.21234 7.31061 6.26266 7.21013 6.35137C7.10965 6.44009 7.05265 6.5601 7.05142 6.68555C7.05018 6.81101 7.10481 6.93187 7.20352 7.02212L11.5407 10.8557C11.3792 11.1467 11.3363 11.478 11.4193 11.7936C11.5024 12.1092 11.7062 12.3899 11.9964 12.5883L8.86673 21.3469C6.26941 20.5021 4.08542 18.8866 2.6886 16.7768C1.29178 14.6669 0.769003 12.194 1.20976 9.7814C1.65051 7.36875 3.02739 5.16639 5.10469 3.5513C7.18199 1.93622 9.83054 1.00885 12.597 0.927953C15.3634 0.847052 18.0756 1.61765 20.2694 3.10783C22.4632 4.59801 24.0021 6.71511 24.6227 9.09672C25.2434 11.4783 24.9071 13.9763 23.6714 16.1631C22.4358 18.35 20.3777 20.0896 17.8494 21.0842L17.5112 19.6779C17.4915 19.5959 17.4478 19.5199 17.3844 19.4575C17.3209 19.3951 17.2401 19.3485 17.1498 19.3224C17.0596 19.2963 16.9632 19.2916 16.8703 19.3087C16.7773 19.3258 16.6911 19.3642 16.6202 19.42L13.3594 21.9904C13.2879 22.0466 13.2346 22.1185 13.2047 22.1988C13.1749 22.279 13.1697 22.3649 13.1897 22.4475C13.2096 22.5301 13.2539 22.6066 13.3182 22.6692C13.3825 22.7318 13.4644 22.7783 13.5556 22.8038L17.7187 23.9771C17.8092 24.0027 17.9056 24.0069 17.9985 23.9893C18.0914 23.9717 18.1773 23.9328 18.2478 23.8766C18.3183 23.8204 18.3708 23.7488 18.4001 23.669C18.4293 23.5892 18.4343 23.5041 18.4146 23.422L18.0824 22.0421C20.8891 20.9895 23.1874 19.0993 24.5754 16.702C25.9633 14.3047 26.3526 11.5529 25.6752 8.92789C24.9977 6.30282 23.2966 3.97156 20.8694 2.3418C18.4421 0.71203 15.4432 -0.112514 12.3971 0.0123594C9.35096 0.137232 6.45149 1.20357 4.20573 3.02491C1.95997 4.84624 0.510857 7.30663 0.111814 9.97583C-0.28723 12.645 0.389191 15.3531 2.02279 17.6266C3.65638 19.9 6.14317 21.594 9.04828 22.4125H9.04774Z" fill="#062743"/>
<path d="M12.462 2.37943V3.33639C12.462 3.46329 12.5191 3.58499 12.6208 3.67473C12.7224 3.76446 12.8602 3.81487 13.004 3.81487C13.1477 3.81487 13.2855 3.76446 13.3872 3.67473C13.4888 3.58499 13.5459 3.46329 13.5459 3.33639V2.37943C13.5459 2.25253 13.4888 2.13082 13.3872 2.04109C13.2855 1.95136 13.1477 1.90095 13.004 1.90095C12.8602 1.90095 12.7224 1.95136 12.6208 2.04109C12.5191 2.13082 12.462 2.25253 12.462 2.37943Z" fill="#062743"/>
<path d="M2.7071 10.9921C2.56337 10.9921 2.42552 11.0425 2.32389 11.1322C2.22226 11.222 2.16516 11.3437 2.16516 11.4706C2.16516 11.5975 2.22226 11.7192 2.32389 11.8089C2.42552 11.8986 2.56337 11.949 2.7071 11.949H3.79098C3.93471 11.949 4.07255 11.8986 4.17418 11.8089C4.27582 11.7192 4.33291 11.5975 4.33291 11.4706C4.33291 11.3437 4.27582 11.222 4.17418 11.1322C4.07255 11.0425 3.93471 10.9921 3.79098 10.9921H2.7071Z" fill="#062743"/>
<path d="M23.3007 11.949C23.4445 11.949 23.5823 11.8986 23.6839 11.8089C23.7856 11.7192 23.8427 11.5975 23.8427 11.4706C23.8427 11.3437 23.7856 11.222 23.6839 11.1322C23.5823 11.0425 23.4445 10.9921 23.3007 10.9921H22.2169C22.0731 10.9921 21.9353 11.0425 21.8337 11.1322C21.732 11.222 21.6749 11.3437 21.6749 11.4706C21.6749 11.5975 21.732 11.7192 21.8337 11.8089C21.9353 11.8986 22.0731 11.949 22.2169 11.949H23.3007Z" fill="#062743"/>
<path d="M38.5627 3.32939H43.0211H48.5838V6.86374H43.0211V21.0228H38.5627V6.86374H33V3.32939H38.5627V3.32939ZM54.0777 15.1726H58.0116L56.0516 11.4955L54.0777 15.1726ZM52.2554 18.3007L52.2002 18.4324L50.7508 20.9789H49.9778H49.7984H46.8997H45.9472L56.0371 3L66.1545 20.9789H65.2021H62.3034H62.1102H61.3371L59.9016 18.4214L59.8326 18.3007H52.2544L52.2554 18.3007ZM73.3052 17.5324L73.2914 17.5104C74.5199 17.5104 75.5414 16.6982 75.5414 15.7213C75.5414 14.9639 75.1687 14.481 74.4095 14.2615C72.8083 13.7895 73.1948 13.8992 71.635 13.4711C69.9925 13.0211 68.4741 12.1321 67.4526 11.0234C66.8453 10.3648 66.5416 9.55262 66.5416 8.57572C66.5416 7.10491 67.2042 5.84264 68.5293 4.78893C69.8544 3.73522 71.4417 3.20836 73.3052 3.20836C75.1548 3.20836 76.7422 3.73522 78.0673 4.78893C79.3924 5.84264 80.0549 7.10491 80.0549 8.57572H75.5689C75.5689 7.60979 74.5474 6.79756 73.3327 6.79756C72.1042 6.79756 71.0828 7.60979 71.0828 8.58668C71.0828 9.22329 71.4003 9.70626 72.049 10.0355C73.3741 10.716 73.2223 10.5843 74.8097 10.9575C76.5213 11.3527 78.0673 12.1978 79.1301 13.2844C79.7512 13.9211 80.0687 14.7443 80.0687 15.7431C80.0687 17.2249 79.4061 18.4872 78.081 19.5409C76.7559 20.5946 75.1686 21.1214 73.3189 21.1214C71.4555 21.1214 69.8681 20.5946 68.543 19.5409C67.2179 18.4872 66.5554 17.2249 66.5554 15.7431H71.0552C71.0552 16.731 72.0629 17.5322 73.3052 17.5322L73.3052 17.5324ZM82.1116 3.32939H86.5701V10.0467L91.4702 3.32939H96.6188L90.0485 12.3188L97.6818 21.0228H92.2571L86.5702 14.5246V21.0228H82.1118V3.32939H82.1116ZM104.625 3.32939H109.083H114.646V6.86374H109.083V21.0228H104.625V6.86374H99.0619V3.32939H104.625V3.32939ZM116.578 21.0228V3.32939H121.037V21.0228H116.578ZM123.245 3.00007L134.095 14.8326L144.944 3.00007V21.0228H140.486V13.7238L134.095 20.7373L127.704 13.7238V21.0228H123.246V3.00007H123.245ZM147.152 3.32939H160.5V6.86374H151.611V10.4091H158.278V13.9434H151.611V17.4778H160.5V21.0231H151.611H147.152V3.32967L147.152 3.32939Z" fill="white"/>
</svg>
